name C:\Users\u0101727\Documents\MyRepositories\predictsim_mtp\Results\predictsim_mtp\Case_80\motion.mot
datacolumns 124
datarows 4
range 0.57884200 0.59620726
endheader 
time	pelvis_tilt	pelvis_list	pelvis_rotation	pelvis_tx	pelvis_ty	pelvis_tz	hip_flexion_l	hip_adduction_l	hip_rotation_l	hip_flexion_r	hip_adduction_r	hip_rotation_r	knee_angle_l	knee_angle_r	ankle_angle_l	ankle_angle_r	subtalar_angle_l	subtalar_angle_r	mtp_angle_l	mtp_angle_r	lumbar_extension	lumbar_bending	lumbar_rotation	arm_flex_l	arm_add_l	arm_rot_l	arm_flex_r	arm_add_r	arm_rot_r	elbow_flex_l	elbow_flex_r	glut_med1_l/activation	glut_med2_l/activation	glut_med3_l/activation	glut_min1_l/activation	glut_min2_l/activation	glut_min3_l/activation	semimem_l/activation	semiten_l/activation	bifemlh_l/activation	bifemsh_l/activation	sar_l/activation	add_long_l/activation	add_brev_l/activation	add_mag1_l/activation	add_mag2_l/activation	add_mag3_l/activation	tfl_l/activation	pect_l/activation	grac_l/activation	glut_max1_l/activation	glut_max2_l/activation	glut_max3_l/activation	iliacus_l/activation	psoas_l/activation	quad_fem_l/activation	gem_l/activation	peri_l/activation	rect_fem_l/activation	vas_med_l/activation	vas_int_l/activation	vas_lat_l/activation	med_gas_l/activation	lat_gas_l/activation	soleus_l/activation	tib_post_l/activation	flex_dig_l/activation	flex_hal_l/activation	tib_ant_l/activation	per_brev_l/activation	per_long_l/activation	per_tert_l/activation	ext_dig_l/activation	ext_hal_l/activation	ercspn_l/activation	intobl_l/activation	extobl_l/activation	glut_med1_r/activation	glut_med2_r/activation	glut_med3_r/activation	glut_min1_r/activation	glut_min2_r/activation	glut_min3_r/activation	semimem_r/activation	semiten_r/activation	bifemlh_r/activation	bifemsh_r/activation	sar_r/activation	add_long_r/activation	add_brev_r/activation	add_mag1_r/activation	add_mag2_r/activation	add_mag3_r/activation	tfl_r/activation	pect_r/activation	grac_r/activation	glut_max1_r/activation	glut_max2_r/activation	glut_max3_r/activation	iliacus_r/activation	psoas_r/activation	quad_fem_r/activation	gem_r/activation	peri_r/activation	rect_fem_r/activation	vas_med_r/activation	vas_int_r/activation	vas_lat_r/activation	med_gas_r/activation	lat_gas_r/activation	soleus_r/activation	tib_post_r/activation	flex_dig_r/activation	flex_hal_r/activation	tib_ant_r/activation	per_brev_r/activation	per_long_r/activation	per_tert_r/activation	ext_dig_r/activation	ext_hal_r/activation	ercspn_r/activation	intobl_r/activation	extobl_r/activation	
          0.57884200	         -2.93017651	          4.28077005	         -8.65198340	          0.76985986	          0.89888707	          0.00987940	         30.85398087	          3.64505977	         -4.81670653	        -19.22842295	         -3.24177413	          6.15409936	        -10.07997045	         -7.43091391	         14.10272156	          1.49208636	         -6.10000850	          0.28364926	          0.36843342	         39.89739468	         -2.27960495	         -1.49676856	          0.99349093	         -7.00268787	        -13.75308917	          7.93569046	          0.06848702	        -13.47906149	         13.64837651	          0.01878732	         93.69897398	          0.05482368	          0.05482369	          0.05000003	          0.05482373	          0.05482372	          0.05482366	          0.29919280	          0.11413054	          0.20899917	          0.14106730	          0.05000017	          0.09821485	          0.23676110	          0.12757594	          0.17310089	          0.13754666	          0.05000008	          0.07924136	          0.16582709	          0.05000009	          0.10395623	          0.19895960	          0.05488645	          0.05219354	          0.28645475	          0.18465454	          0.14377735	          0.05000132	          0.05000562	          0.05057303	          0.05099779	          0.05000004	          0.05000004	          0.05000000	          0.05000000	          0.05000013	          0.05000005	          0.62837226	          0.30156647	          0.19225197	          0.27890690	          0.67221808	          0.34193964	          0.08022685	          0.09427398	          0.06591213	          0.11167645	          0.09415860	          0.08688812	          0.15454315	          0.13868495	          0.10669747	          0.05000031	          0.05000009	          0.05000009	          0.06928396	          0.08050192	          0.15099859	          0.10282725	          0.05000118	          0.05000134	          0.05000043	          0.19821711	          0.05482531	          0.05338936	          0.05000217	          0.05000101	          0.05000079	          0.41318266	          0.75852624	          0.07921388	          0.05705527	          0.08688862	          0.24269612	          0.07249028	          0.07795434	          0.06496051	          0.26404919	          0.39377800	          0.24715529	          0.48494517	          0.56896651	          0.53177569	          0.05000000	          0.05000004	          0.05000002	          0.05000005	          0.05000001	          0.05000007	          0.06019075	          0.05000001	          0.05482365	
          0.58463042	         -2.92883068	          4.29471781	         -8.83657718	          0.77917387	          0.89787236	          0.00978001	         30.66806280	          3.77891007	         -4.69580515	        -19.17719148	         -3.35405179	          5.85652662	        -10.62234284	         -8.52071616	         13.80449232	          1.18258966	         -6.31503060	          0.54126960	          0.37493271	         40.45255362	         -2.19343456	         -1.55197950	          1.03592105	         -7.75433987	        -13.77026061	          7.70838136	          0.07678908	        -13.49474059	         14.07807768	          0.00000000	         95.03715045	          0.05000000	          0.05000002	          0.10041117	          0.05000005	          0.05000004	          0.05000003	          0.27286826	          0.10408873	          0.19061032	          0.12865545	          0.07227216	          0.08957343	          0.21592963	          0.26007768	          0.18300519	          0.13484530	          0.05000021	          0.07226978	          0.15123682	          0.05083447	          0.10964155	          0.19022337	          0.05005730	          0.07227085	          0.48513743	          0.16840768	          0.13112712	          0.06591175	          0.06149584	          0.06011784	          0.06011321	          0.06820661	          0.07227082	          0.06716619	          0.06591258	          0.06011285	          0.06591025	          0.57308468	          0.36004350	          0.22700229	          0.25436719	          0.61307273	          0.31185396	          0.07316807	          0.08597925	          0.06011283	          0.10185060	          0.08587403	          0.07924324	          0.14094566	          0.12648272	          0.09730967	          0.05269795	          0.05000185	          0.05482349	          0.06318800	          0.07341897	          0.17732449	          0.09378108	          0.11805873	          0.08225263	          0.11362825	          0.18077693	          0.05000170	          0.06011332	          0.06011042	          0.06011317	          0.06591163	          0.37682866	          0.73335979	          0.07224425	          0.06013348	          0.07924370	          0.22134241	          0.10532074	          0.15723775	          0.12660272	          0.24081673	          0.35913132	          0.22930892	          0.47095870	          0.53744843	          0.49985171	          0.05890032	          0.05000001	          0.05000001	          0.05000005	          0.05000002	          0.05000054	          0.06741446	          0.06591202	          0.05000001	
          0.59041884	         -2.92595555	          4.30577757	         -9.01292498	          0.78856019	          0.89682416	          0.00967969	         30.45084347	          3.88806386	         -4.55575167	        -19.11514445	         -3.46427784	          5.54963555	        -11.25302440	         -9.63823391	         13.50583711	          0.89113087	         -6.53982291	          0.79009699	          0.28267164	         40.82898530	         -2.10186470	         -1.60531995	          1.07589750	         -8.51598436	        -13.78727291	          7.51223959	          0.07715409	        -13.50848492	         14.49842198	          0.02225170	         96.31928612	          0.18422243	          0.13880234	          0.21192961	          0.24720865	          0.06391454	          0.13718049	          0.25467064	          0.10168875	          0.17943558	          0.12205138	          0.06591358	          0.08169230	          0.19693100	          0.23719467	          0.16690345	          0.14525646	          0.05000040	          0.06591302	          0.13793095	          0.05000007	          0.13631315	          0.18628556	          0.06591125	          0.06591208	          0.44245244	          0.15359032	          0.23604931	          0.06011248	          0.05608511	          0.05482836	          0.05482413	          0.06220543	          0.06591205	          0.06125655	          0.06011325	          0.05482388	          0.06011116	          0.57303890	          0.34316478	          0.20702955	          0.23198667	          0.66877627	          0.28441560	          0.07116299	          0.10215989	          0.05482379	          0.25661761	          0.07831837	          0.07227099	          0.13161883	          0.11535411	          0.08874785	          0.05000174	          0.05000053	          0.05000044	          0.05762840	          0.06695925	          0.17421289	          0.14196637	          0.10767135	          0.07501578	          0.10363128	          0.16487124	          0.05432312	          0.05482438	          0.05482215	          0.05482431	          0.06011248	          0.35433185	          0.71794081	          0.06588782	          0.05484266	          0.07227141	          0.20186752	          0.09605413	          0.14340318	          0.11546358	          0.21962837	          0.32753304	          0.21824238	          0.43436714	          0.49016284	          0.45587397	          0.05371798	          0.05000007	          0.05000004	          0.05000009	          0.05000004	          0.05000023	          0.06562839	          0.06011273	          0.05000013	
          0.59620726	         -2.92220179	          4.31289609	         -9.17985286	          0.79798130	          0.89576486	          0.00957084	         30.20111817	          3.98039585	         -4.40964711	        -19.03815049	         -3.57203727	          5.23397387	        -11.85750579	        -10.78739499	         13.24738095	          0.62941468	         -6.76421383	          1.03645867	          0.25456654	         40.99541522	         -2.00887184	         -1.65558035	          1.11359805	         -9.27662888	        -13.80249209	          7.34922289	          0.07369712	        -13.52071666	         14.90772979	          0.07632403	         97.54023073	          0.23794541	          0.26392716	          0.33018118	          0.29021666	          0.25261059	          0.28467670	          0.23226336	          0.10211262	          0.16364791	          0.11131274	          0.06011425	          0.07450458	          0.17960395	          0.21632503	          0.15221845	          0.15736138	          0.05000066	          0.06011377	          0.12579523	          0.16127274	          0.17190445	          0.19240674	          0.06011205	          0.06011280	          0.40352310	          0.14007665	          0.21528361	          0.05482346	          0.05115044	          0.05000427	          0.05000042	          0.05673226	          0.06011276	          0.05586687	          0.05482417	          0.05000025	          0.05482229	          0.69192289	          0.41907670	          0.22686715	          0.44583557	          0.72482597	          0.45576589	          0.08680040	          0.10578596	          0.05000011	          0.28066282	          0.07142751	          0.06591221	          0.24379235	          0.10520465	          0.08093934	          0.05000324	          0.05000023	          0.05000021	          0.05255798	          0.06106789	          0.19414532	          0.18190607	          0.09819795	          0.06841579	          0.10683992	          0.15036502	          0.05482694	          0.05000089	          0.05000075	          0.05000095	          0.05482360	          0.33432902	          0.70066719	          0.06009067	          0.05001740	          0.06591259	          0.18410614	          0.08760392	          0.13802080	          0.13002291	          0.20030429	          0.29871495	          0.20736971	          0.42696860	          0.45357562	          0.43966383	          0.05240863	          0.05000006	          0.05000003	          0.05000020	          0.05000007	          0.05000081	          0.07127259	          0.05482369	          0.05000001	
